<?xml version="1.0" encoding="UTF-8" standalone="no"?>
<svg
   xmlns:dc="http://purl.org/dc/elements/1.1/"
   xmlns:cc="http://creativecommons.org/ns#"
   xmlns:rdf="http://www.w3.org/1999/02/22-rdf-syntax-ns#"
   xmlns:svg="http://www.w3.org/2000/svg"
   xmlns="http://www.w3.org/2000/svg"
   xmlns:sodipodi="http://sodipodi.sourceforge.net/DTD/sodipodi-0.dtd"
   xmlns:inkscape="http://www.inkscape.org/namespaces/inkscape"
   width="32"
   height="32"
   viewBox="0 0 32 32"
   version="1.1"
   id="svg2055"
   inkscape:version="1.0.1 (3bc2e813f5, 2020-09-07)"
   sodipodi:docname="settings_stream.svg">
  <defs
     id="defs2049" />
  <sodipodi:namedview
     id="base"
     pagecolor="#000000"
     bordercolor="#666666"
     borderopacity="1.0"
     inkscape:pageopacity="0"
     inkscape:pageshadow="2"
     inkscape:zoom="15.839192"
     inkscape:cx="16.032928"
     inkscape:cy="16.580112"
     inkscape:document-units="px"
     inkscape:current-layer="layer1"
     inkscape:document-rotation="0"
     showgrid="true"
     units="px"
     inkscape:pagecheckerboard="true"
     inkscape:window-width="1267"
     inkscape:window-height="1198"
     inkscape:window-x="3554"
     inkscape:window-y="134"
     inkscape:window-maximized="0">
    <inkscape:grid
       type="xygrid"
       id="grid830"
       empspacing="8" />
  </sodipodi:namedview>
  <metadata
     id="metadata2052">
    <rdf:RDF>
      <cc:Work
         rdf:about="">
        <dc:format>image/svg+xml</dc:format>
        <dc:type
           rdf:resource="http://purl.org/dc/dcmitype/StillImage" />
        <dc:title></dc:title>
      </cc:Work>
    </rdf:RDF>
  </metadata>
  <g
     inkscape:label="Layer 1"
     inkscape:groupmode="layer"
     id="layer1">
    <path
       style="fill:#ffffff;stroke:#ffffff;stroke-width:1px;stroke-linecap:butt;stroke-linejoin:round;stroke-opacity:1;fill-opacity:0.25"
       d="m 11,30 c 0,0 3.189404,-2.211928 3,-6 0.252538,-4.671956 -1.431789,-2.600888 -2,-5 -1.262691,-0.883883 1.69448,-1.664022 1,-4 C 12,12 8.5050763,17.335978 8,15 8.1262691,13.737309 5.5479057,12.820749 7,12 6.3055201,10.484771 13.535534,11.515229 10,10 8.1690985,9.5580583 9,8 9,8 10.767767,6.105964 5,6 5,6 l -3,8 c 0.5050763,2.714785 1,2 2,5 1.4520943,2.77792 -2,3 -2,3 l 6,3 c 2.588516,0.757614 -1,3 -1,3 z"
       id="path1442"
       sodipodi:nodetypes="ccccccccccccccc" />
    <path
       style="fill:#ffffff;stroke:#ffffff;stroke-width:1px;stroke-linecap:butt;stroke-linejoin:round;stroke-opacity:1;fill-opacity:0.25"
       d="m 20,22 c -0.820749,-0.947018 5,-1 5,-1 1.704632,-0.315673 4.010153,0.91656 3,3 -1.325825,2.65165 -6,3 -6,3 -4.230014,-0.631345 1,1 1,1 0,1.010153 -3.61104,2.830901 -5,1 0,0 -1.767767,-1.494924 0,-2 0,0 4.390098,-2.567079 2,-3 -2,0 0,-2 0,-2 z"
       id="path1444"
       sodipodi:nodetypes="ccccccccc" />
    <path
       style="fill:#ffffff;stroke:#ffffff;stroke-width:1px;stroke-linecap:butt;stroke-linejoin:round;stroke-opacity:1;fill-opacity:0.25"
       d="m 17,5 c -0.484362,2.051789 2,6 2,6 0.126269,1.515229 4.30552,-0.77792 5,2 1.957171,1.38896 -3,4 -3,4 0,0 1.474619,1.820749 4,1 1,-0.333333 -0.802544,-5.104027 3,-1 l 2,2 V 12 L 26,5 20,2 c 0,0 -2.67508,1.6236181 -3,3 z"
       id="path1446"
       sodipodi:nodetypes="scccccccccs" />
    <circle
       style="fill:none;fill-opacity:1;stroke:#f7f7f7;stroke-width:2;stroke-linecap:butt;stroke-linejoin:round;stroke-miterlimit:4;stroke-dasharray:none;stroke-opacity:1"
       id="path1438"
       cx="16"
       cy="16"
       r="15" />
  </g>
</svg>
