<?xml version="1.0" encoding="UTF-8" standalone="no"?>
<svg
   xmlns:dc="http://purl.org/dc/elements/1.1/"
   xmlns:cc="http://creativecommons.org/ns#"
   xmlns:rdf="http://www.w3.org/1999/02/22-rdf-syntax-ns#"
   xmlns:svg="http://www.w3.org/2000/svg"
   xmlns="http://www.w3.org/2000/svg"
   xmlns:sodipodi="http://sodipodi.sourceforge.net/DTD/sodipodi-0.dtd"
   xmlns:inkscape="http://www.inkscape.org/namespaces/inkscape"
   width="32"
   height="32"
   viewBox="0 0 32 32"
   version="1.1"
   id="svg2055"
   inkscape:version="1.0.1 (3bc2e813f5, 2020-09-07)"
   sodipodi:docname="settings_advanced.svg">
  <defs
     id="defs2049" />
  <sodipodi:namedview
     id="base"
     pagecolor="#ffffff"
     bordercolor="#666666"
     borderopacity="1.0"
     inkscape:pageopacity="0.0"
     inkscape:pageshadow="2"
     inkscape:zoom="22.4"
     inkscape:cx="18.503182"
     inkscape:cy="20.833138"
     inkscape:document-units="px"
     inkscape:current-layer="layer1"
     inkscape:document-rotation="0"
     showgrid="true"
     units="px"
     inkscape:pagecheckerboard="true"
     inkscape:window-width="1267"
     inkscape:window-height="1198"
     inkscape:window-x="4088"
     inkscape:window-y="194"
     inkscape:window-maximized="0">
    <inkscape:grid
       empspacing="8"
       type="xygrid"
       id="grid1398" />
  </sodipodi:namedview>
  <metadata
     id="metadata2052">
    <rdf:RDF>
      <cc:Work
         rdf:about="">
        <dc:format>image/svg+xml</dc:format>
        <dc:type
           rdf:resource="http://purl.org/dc/dcmitype/StillImage" />
        <dc:title />
      </cc:Work>
    </rdf:RDF>
  </metadata>
  <g
     inkscape:label="Layer 1"
     inkscape:groupmode="layer"
     id="layer1">
    <g
       id="g856"
       transform="matrix(0.94151011,0.40839737,-0.42124065,0.91280424,9.9145594,-4.3968615)">
      <path
         id="path1396"
         style="fill:#feffff;fill-opacity:1;stroke:none;stroke-width:1.34663;stroke-miterlimit:4;stroke-dasharray:none;stroke-opacity:1"
         inkscape:transform-center-x="0.20359182"
         inkscape:transform-center-y="-0.42912579"
         d="m 7.8971092,17.288814 c -1.2439081,0.02313 -0.5268322,2.042957 -1.6668343,2.521395 -1.1400022,0.478439 -2.1973475,-1.398691 -3.059889,-0.537783 -0.8625415,0.860908 1.1310579,1.802541 0.6772912,2.914853 -0.4537668,1.112312 -2.5829444,0.503162 -2.5588545,1.697539 0.02409,1.194377 2.1276782,0.505854 2.6259573,1.600463 0.4982791,1.094608 -1.4566947,2.109852 -0.5600849,2.938048 0.8966098,0.828196 1.8772921,-1.086021 3.0357318,-0.650323 1.1584397,0.435698 0.5240282,2.480096 1.7679358,2.456965 1.2439081,-0.02313 0.5268322,-2.042957 1.6668343,-2.521395 1.1400021,-0.478439 2.1973481,1.39869 3.0598891,0.537783 0.862542,-0.860909 -1.131058,-1.802541 -0.677291,-2.914853 0.453766,-1.112312 2.582945,-0.503162 2.558854,-1.697539 -0.02409,-1.194377 -2.127678,-0.505854 -2.625957,-1.600463 -0.498279,-1.094609 1.456694,-2.109852 0.560085,-2.938048 -0.89661,-0.828196 -1.877292,1.086021 -3.035732,0.650322 C 8.5066053,19.31008 9.1410168,17.265684 7.8971092,17.288814 Z M 8,22 A 1.8323545,1.7593924 0 0 1 8.027736,22 1.8323545,1.7593924 0 0 1 9.8600905,23.759392 1.8323545,1.7593924 0 0 1 8.0277359,25.518785 1.8323545,1.7593924 0 0 1 6.1953813,23.759392 1.8323545,1.7593924 0 0 1 8,22 Z" />
      <path
         id="path1396-8"
         style="fill:#feffff;fill-opacity:1;stroke:none;stroke-width:1.34663;stroke-miterlimit:4;stroke-dasharray:none;stroke-opacity:1"
         inkscape:transform-center-x="0.20359182"
         inkscape:transform-center-y="-0.42912579"
         d="m 22.897109,10.288814 c -1.243908,0.02313 -0.526832,2.042957 -1.666834,2.521395 -1.140002,0.478439 -2.197348,-1.398691 -3.059889,-0.537783 -0.862542,0.860908 1.131058,1.802541 0.677291,2.914853 -0.453767,1.112312 -2.582944,0.503162 -2.558854,1.697539 0.02409,1.194377 2.127678,0.505854 2.625957,1.600463 0.498279,1.094608 -1.456695,2.109852 -0.560085,2.938048 0.89661,0.828196 1.877292,-1.086021 3.035732,-0.650323 1.158439,0.435698 0.524028,2.480096 1.767936,2.456965 1.243908,-0.02313 0.526832,-2.042957 1.666834,-2.521395 1.140002,-0.478439 2.197348,1.39869 3.059889,0.537783 0.862542,-0.860909 -1.131058,-1.802541 -0.677291,-2.914853 0.453766,-1.112312 2.582945,-0.503162 2.558854,-1.697539 -0.02409,-1.194377 -2.127678,-0.505854 -2.625957,-1.600463 -0.498279,-1.094609 1.456694,-2.109852 0.560085,-2.938048 -0.89661,-0.828196 -1.877292,1.086021 -3.035732,0.650322 -1.15844,-0.435698 -0.524028,-2.480094 -1.767936,-2.456964 z M 23,15 a 1.8323545,1.7593924 0 0 1 0.02774,0 1.8323545,1.7593924 0 0 1 1.832354,1.759392 A 1.8323545,1.7593924 0 0 1 23.02774,18.518785 1.8323545,1.7593924 0 0 1 21.195381,16.759392 1.8323545,1.7593924 0 0 1 23,15 Z" />
      <path
         id="path1396-5"
         style="fill:#feffff;fill-opacity:1;stroke:none;stroke-width:1.34663;stroke-miterlimit:4;stroke-dasharray:none;stroke-opacity:1"
         inkscape:transform-center-x="0.064237938"
         inkscape:transform-center-y="-0.47060812"
         d="M 13.327112,6.4784163 C 12.134489,6.1241676 12.206949,8.2662807 10.975628,8.3774397 9.7443065,8.4885997 9.3043524,6.3795624 8.2217913,6.939206 7.1392292,7.4988493 8.7545676,8.9994477 7.9855755,9.9223743 7.2165835,10.845301 5.3714408,9.6205941 5.0330908,10.766297 c -0.3383501,1.145704 1.8749619,1.125798 2.0187642,2.319854 0.1438025,1.194056 -2.0266952,1.570333 -1.4226326,2.630958 0.6040625,1.060626 2.1178661,-0.467236 3.0902255,0.298487 0.9723585,0.765724 -0.2507793,2.522418 0.9418442,2.876666 1.1926229,0.354249 1.1201629,-1.787865 2.3514839,-1.899024 1.231322,-0.111159 1.671276,1.997877 2.753837,1.438234 1.082562,-0.559644 -0.532777,-2.060241 0.236216,-2.983168 0.768991,-0.922927 2.614135,0.30178 2.952484,-0.843923 0.33835,-1.145703 -1.874962,-1.125797 -2.018764,-2.319854 C 15.792747,11.09047 17.963243,10.714194 17.359182,9.6535691 16.755119,8.5929435 15.241316,10.120806 14.268956,9.3550808 13.296597,8.5893569 14.519735,6.832665 13.327112,6.4784163 Z M 12,10.999991 a 1.8323545,1.7593924 17.60844 0 1 0.02644,0.0084 1.8323545,1.7593924 17.60844 0 1 1.214267,2.231264 1.8323545,1.7593924 17.60844 0 1 -2.278735,1.122652 A 1.8323545,1.7593924 17.60844 0 1 9.7477001,12.131041 1.8323545,1.7593924 17.60844 0 1 12,11 Z" />
    </g>
  </g>
</svg>
